<svg xmlns="http://www.w3.org/2000/svg" xmlns:xlink="http://www.w3.org/1999/xlink" viewBox="0,0,256,256" width="64px" height="64px" fill-rule="nonzero"><g transform=""><g fill="#000000" fill-rule="nonzero" stroke="none" stroke-width="1" stroke-linecap="butt" stroke-linejoin="miter" stroke-miterlimit="10" stroke-dasharray="" stroke-dashoffset="0" font-family="none" font-weight="none" font-size="none" text-anchor="none" style="mix-blend-mode: normal"><path d="M0,256v-256h256v256z" id="bgRectangle"></path></g><g fill="none" fill-rule="nonzero" stroke-opacity="0" stroke="#000000" stroke-width="4" stroke-linecap="butt" stroke-linejoin="miter" stroke-miterlimit="10" stroke-dasharray="" stroke-dashoffset="0" font-family="none" font-weight="none" font-size="none" text-anchor="none" style="mix-blend-mode: normal"><path d="M128,253.35578c-69.23208,0 -125.35578,-56.12369 -125.35578,-125.35578v0c0,-69.23208 56.12369,-125.35578 125.35578,-125.35578v0c69.23208,0 125.35578,56.12369 125.35578,125.35578v0c0,69.23208 -56.12369,125.35578 -125.35578,125.35578z" id="shape"></path></g><g fill="#ffffff" fill-rule="nonzero" stroke="none" stroke-width="1" stroke-linecap="butt" stroke-linejoin="miter" stroke-miterlimit="10" stroke-dasharray="" stroke-dashoffset="0" font-family="none" font-weight="none" font-size="none" text-anchor="none" style="mix-blend-mode: normal"><g transform="scale(4,4)"><path d="M51.092,15.737l-2.829,-2.829l-16.263,16.264l-16.263,-16.264l-2.829,2.829l16.264,16.263l-16.264,16.263l2.829,2.829l16.263,-16.264l16.263,16.264l2.829,-2.829l-16.264,-16.263z"></path></g></g></g></svg>